DBRep_DrawableShape

CASCADE Topology V3, (c) Open Cascade
Locations 0
Curve2ds 24
1 0 0 1 0 
1 0 2 1 0 
1 2 0 0 -1 
1 2 0 0 1 
1 0 -2 1 0 
1 0 2 1 0 
1 0 0 0 -1 
1 2 0 0 1 
1 0 0 0 1 
1 0 0 1 0 
1 2 0 0 1 
1 0 0 1 0 
1 0 0 1 0 
1 0 0 1 0 
1 0 0 0 1 
1 0 2 1 0 
1 2 0 0 1 
1 0 2 1 0 
1 0 -2 1 0 
1 0 0 1 0 
1 0 0 0 -1 
1 0 0 0 1 
1 2 0 0 -1 
1 0 0 0 1 
Curves 12
1 2 0 0 0 0 1 
1 2 0 2 -0 1 0 
1 2 2 0 0 0 1 
1 2 0 0 -0 1 0 
1 0 0 0 1 0 -0 
1 0 0 2 1 0 -0 
1 0 0 0 0 0 1 
1 0 2 0 1 0 -0 
1 0 2 2 1 0 -0 
1 0 2 0 0 0 1 
1 0 0 0 -0 1 0 
1 0 0 2 -0 1 0 
Polygon3D 0
PolygonOnTriangulations 0
Surfaces 6
1 2 0 0 1 0 -0 0 0 1 0 -1 0 
1 0 0 0 -0 1 0 0 0 1 1 0 -0 
1 0 0 2 0 0 1 1 0 -0 -0 1 0 
1 0 2 0 -0 1 0 0 0 1 1 0 -0 
1 0 0 0 0 0 1 1 0 -0 -0 1 0 
1 0 0 0 1 0 -0 0 0 1 0 -1 0 
Triangulations 0

TShapes 31
Ve
1e-07
2 0 2
0 0

0101101
*
Ve
1e-07
2 0 0
0 0

0101101
*
Ed
 1e-07 1 1 0
1  1 0 0 2
2  1 1 0 0 2
2  2 2 0 0 2
0

0101000
-31 0 +30 0 *
Ve
1e-07
2 2 2
0 0

0101101
*
Ed
 1e-07 1 1 0
1  2 0 0 2
2  3 1 0 0 2
2  4 3 0 0 2
0

0101000
-28 0 +31 0 *
Ve
1e-07
2 2 0
0 0

0101101
*
Ed
 1e-07 1 1 0
1  3 0 0 2
2  5 1 0 0 2
2  6 4 0 0 2
0

0101000
-28 0 +26 0 *
Ed
 1e-07 1 1 0
1  4 0 0 2
2  7 1 0 0 2
2  8 5 0 0 2
0

0101000
-26 0 +30 0 *
Wi

0101100
-29 0 -27 0 +25 0 +24 0 *
Fa
0  1e-07 1 0

0111000
+23 0 *
Ve
1e-07
0 0 0
0 0

0101101
*
Ed
 1e-07 1 1 0
1  5 0 0 2
2  9 2 0 0 2
2  10 5 0 0 2
0

0101000
-30 0 +21 0 *
Ve
1e-07
0 0 2
0 0

0101101
*
Ed
 1e-07 1 1 0
1  6 0 0 2
2  11 2 0 0 2
2  12 3 0 0 2
0

0101000
-31 0 +19 0 *
Ed
 1e-07 1 1 0
1  7 0 0 2
2  13 6 0 0 2
2  14 2 0 0 2
0

0101000
-19 0 +21 0 *
Wi

0101100
-20 0 -29 0 +18 0 +17 0 *
Fa
0  1e-07 2 0

0111000
+16 0 *
Ve
1e-07
0 2 0
0 0

0101101
*
Ed
 1e-07 1 1 0
1  8 0 0 2
2  15 4 0 0 2
2  16 5 0 0 2
0

0101000
-26 0 +14 0 *
Ve
1e-07
0 2 2
0 0

0101101
*
Ed
 1e-07 1 1 0
1  9 0 0 2
2  17 4 0 0 2
2  18 3 0 0 2
0

0101000
-28 0 +12 0 *
Ed
 1e-07 1 1 0
1  10 0 0 2
2  19 6 0 0 2
2  20 4 0 0 2
0

0101000
-12 0 +14 0 *
Wi

0101100
-13 0 -25 0 +11 0 +10 0 *
Fa
0  1e-07 4 0

0111000
+9 0 *
Ed
 1e-07 1 1 0
1  11 0 0 2
2  21 6 0 0 2
2  22 5 0 0 2
0

0101000
-14 0 +21 0 *
Wi

0101100
-7 0 -13 0 +24 0 +20 0 *
Fa
0  1e-07 5 0

0111000
+6 0 *
Ed
 1e-07 1 1 0
1  12 0 0 2
2  23 6 0 0 2
2  24 3 0 0 2
0

0101000
-12 0 +19 0 *
Wi

0101100
-4 0 -11 0 +27 0 +18 0 *
Fa
0  1e-07 3 0

0111000
+3 0 *
Sh

1101000
+22 0 -15 0 +8 0 -5 0 +2 0 *

+1 0 