DBRep_DrawableShape

CASCADE Topology V3, (c) Open Cascade
Locations 0
Curve2ds 40
1 0 0 1 0 
1 0 0 1 0 
1 2 0 0 -1 
1 0 0 0 1 
1 0 -2 1 0 
1 0 0 1 0 
1 0 0 0 -1 
1 0 0 0 1 
1 0 0 0 1 
1 0 0 1 0 
1 0 0 1 0 
1 0 2 1 0 
1 2 0 0 1 
1 0 0 1 0 
1 2 0 0 1 
1 0 2 1 0 
1 2 0 0 -1 
1 2 0 0 1 
1 0 0 0 1 
1 0 2 1 0 
1 0 -2 1 0 
1 0 2 1 0 
1 0 0 0 -1 
1 2 0 0 1 
1 0 0 0 1 
1 0 0 1 0 
1 0 0 1 0 
1 0 2 1 0 
1 2 0 0 1 
1 0 0 1 0 
1 2 0 0 1 
1 0 2 1 0 
1 2 0 0 -1 
1 2 0 0 1 
1 0 0 0 1 
1 0 2 1 0 
1 0 -2 1 0 
1 0 2 1 0 
1 0 0 0 -1 
1 2 0 0 1 
Curves 20
1 0 0 0 0 0 1 
1 0 0 2 -0 1 0 
1 0 2 0 0 0 1 
1 0 0 0 -0 1 0 
1 0 0 0 1 0 -0 
1 2 0 0 0 0 1 
1 0 0 2 1 0 -0 
1 0 2 2 1 0 -0 
1 2 0 2 -0 1 0 
1 0 2 0 1 0 -0 
1 2 2 0 0 0 1 
1 2 0 0 -0 1 0 
1 2 0 0 1 0 -0 
1 4 0 0 0 0 1 
1 2 0 2 1 0 -0 
1 2 2 2 1 0 -0 
1 4 0 2 -0 1 0 
1 2 2 0 1 0 -0 
1 4 2 0 0 0 1 
1 4 0 0 -0 1 0 
Polygon3D 0
PolygonOnTriangulations 0
Surfaces 11
1 0 0 0 1 0 -0 0 0 1 0 -1 0 
1 0 0 0 -0 1 0 0 0 1 1 0 -0 
1 0 0 2 0 0 1 1 0 -0 -0 1 0 
1 0 2 0 -0 1 0 0 0 1 1 0 -0 
1 0 0 0 0 0 1 1 0 -0 -0 1 0 
1 2 0 0 1 0 -0 0 0 1 0 -1 0 
1 2 0 0 -0 1 0 0 0 1 1 0 -0 
1 2 0 0 0 0 1 1 0 -0 -0 1 0 
1 4 0 0 1 0 -0 0 0 1 0 -1 0 
1 2 0 2 0 0 1 1 0 -0 -0 1 0 
1 2 2 0 -0 1 0 0 0 1 1 0 -0 
Triangulations 0

TShapes 55
Ve
1e-07
0 0 2
0 0

0101101
*
Ve
1e-07
0 0 0
0 0

0101101
*
Ed
 1e-07 1 1 0
1  1 0 0 2
2  1 1 0 0 2
2  2 2 0 0 2
0

0101000
-55 0 +54 0 *
Ve
1e-07
0 2 2
0 0

0101101
*
Ed
 1e-07 1 1 0
1  2 0 0 2
2  3 1 0 0 2
2  4 3 0 0 2
0

0101000
-52 0 +55 0 *
Ve
1e-07
0 2 0
0 0

0101101
*
Ed
 1e-07 1 1 0
1  3 0 0 2
2  5 1 0 0 2
2  6 4 0 0 2
0

0101000
-52 0 +50 0 *
Ed
 1e-07 1 1 0
1  4 0 0 2
2  7 1 0 0 2
2  8 5 0 0 2
0

0101000
-50 0 +54 0 *
Wi

0101100
-53 0 -51 0 +49 0 +48 0 *
Fa
0  1e-07 1 0

0111000
+47 0 *
Ve
1e-07
2 0 0
0 0

0101101
*
Ed
 1e-07 1 1 0
1  5 0 0 2
2  9 2 0 0 2
2  10 5 0 0 2
0

0101000
+54 0 -45 0 *
Ve
1e-07
2 0 2
0 0

0101101
*
Ed
 1e-07 1 1 0
1  6 0 0 2
2  11 6 0 0 2
2  12 2 0 0 2
0

0101000
+45 0 -43 0 *
Ed
 1e-07 1 1 0
1  7 0 0 2
2  13 2 0 0 2
2  14 3 0 0 2
0

0101000
+55 0 -43 0 *
Wi

0101100
-44 0 -42 0 +41 0 +53 0 *
Fa
0  1e-07 2 0

0101000
+40 0 *
Ve
1e-07
2 2 2
0 0

0101101
*
Ed
 1e-07 1 1 0
1  8 0 0 2
2  15 4 0 0 2
2  16 3 0 0 2
0

0101000
+52 0 -38 0 *
Ed
 1e-07 1 1 0
1  9 0 0 2
2  17 6 0 0 2
2  18 3 0 0 2
0

0101000
+43 0 -38 0 *
Wi

0101100
-51 0 -37 0 +36 0 +41 0 *
Fa
0  1e-07 3 0

0101000
+35 0 *
Ve
1e-07
2 2 0
0 0

0101101
*
Ed
 1e-07 1 1 0
1  10 0 0 2
2  19 4 0 0 2
2  20 5 0 0 2
0

0101000
+50 0 -33 0 *
Ed
 1e-07 1 1 0
1  11 0 0 2
2  21 6 0 0 2
2  22 4 0 0 2
0

0101000
+33 0 -38 0 *
Wi

0101100
-32 0 -31 0 +37 0 +49 0 *
Fa
0  1e-07 4 0

0101000
+30 0 *
Ed
 1e-07 1 1 0
1  12 0 0 2
2  23 6 0 0 2
2  24 5 0 0 2
0

0101000
+45 0 -33 0 *
Wi

0101100
-48 0 -32 0 +28 0 +44 0 *
Fa
0  1e-07 5 0

0101000
+27 0 *
Ve
1e-07
4 0 0
0 0

0101101
*
Ed
 1e-07 1 1 0
1  13 0 0 2
2  25 7 0 0 2
2  26 8 0 0 2
0

0101000
+45 0 -25 0 *
Ve
1e-07
4 0 2
0 0

0101101
*
Ed
 1e-07 1 1 0
1  14 0 0 2
2  27 9 0 0 2
2  28 7 0 0 2
0

0101000
-23 0 +25 0 *
Ed
 1e-07 1 1 0
1  15 0 0 2
2  29 7 0 0 2
2  30 10 0 0 2
0

0101000
+43 0 -23 0 *
Wi

0101100
-24 0 -22 0 +21 0 +42 0 *
Fa
0  1e-07 7 0

0101000
+20 0 *
Ve
1e-07
4 2 2
0 0

0101101
*
Ed
 1e-07 1 1 0
1  16 0 0 2
2  31 11 0 0 2
2  32 10 0 0 2
0

0101000
+38 0 -18 0 *
Ed
 1e-07 1 1 0
1  17 0 0 2
2  33 9 0 0 2
2  34 10 0 0 2
0

0101000
-18 0 +23 0 *
Wi

0101100
-36 0 -17 0 +16 0 +21 0 *
Fa
0  1e-07 10 0

0101000
+15 0 *
Ve
1e-07
4 2 0
0 0

0101101
*
Ed
 1e-07 1 1 0
1  18 0 0 2
2  35 11 0 0 2
2  36 8 0 0 2
0

0101000
+33 0 -13 0 *
Ed
 1e-07 1 1 0
1  19 0 0 2
2  37 9 0 0 2
2  38 11 0 0 2
0

0101000
-18 0 +13 0 *
Wi

0101100
-12 0 -11 0 +17 0 +31 0 *
Fa
0  1e-07 11 0

0101000
+10 0 *
Ed
 1e-07 1 1 0
1  20 0 0 2
2  39 9 0 0 2
2  40 8 0 0 2
0

0101000
-13 0 +25 0 *
Wi

0101100
-28 0 -12 0 +8 0 +24 0 *
Fa
0  1e-07 8 0

0101000
+7 0 *
Wi

0101100
-22 0 -16 0 +11 0 +8 0 *
Fa
0  1e-07 9 0

0111000
+5 0 *
Sh

0101100
-46 0 -39 0 +34 0 +29 0 -26 0 -19 0 +14 0 +9 0 -6 0 +4 0 
*
So

0100000
+3 0 *
Co

1100000
+2 0 *

+1 0 